<?xml version="1.0" encoding="UTF-8" standalone="no"?>
<!-- Created with Inkscape (http://www.inkscape.org/) -->

<svg
   width="25.905418mm"
   height="14.836639mm"
   viewBox="0 0 25.905418 14.836639"
   version="1.1"
   id="svg5"
   xmlns="http://www.w3.org/2000/svg"
   xmlns:svg="http://www.w3.org/2000/svg">
  <defs
     id="defs2" />
  <g
     id="layer1"
     transform="translate(-92.047288,-141.08169)">
    <rect
       style="fill:#556cd6;fill-opacity:1;stroke:#ffffff;stroke-width:0.18283"
       id="rect4592"
       width="25.722593"
       height="14.65381"
       x="92.138702"
       y="141.1731"
       rx="4.2742453" />
    <g
       aria-label="x3"
       id="text113"
       style="font-weight:bold;font-size:14.1111px;line-height:1.25;font-family:'Blue North line regular';-inkscape-font-specification:'Blue North line regular,  Bold';fill:#ffffff;stroke-width:0.264583">
      <path
         d="m 100.33229,151.83023 q 0.18344,0.0705 0.36688,0.0705 -0.0141,0.36689 -0.26811,0.62089 -0.254,0.23989 -0.606773,0.23989 v 0.56444 h -0.296334 q -0.09878,0.11289 -0.211666,0.21167 -0.09878,0.0988 -0.183444,0.16933 -0.09878,0.0847 -0.197556,0.16934 -0.112889,-0.0847 -0.211666,-0.16934 -0.09878,-0.0705 -0.197556,-0.16933 -0.09878,-0.0988 -0.197555,-0.21167 h -0.282222 v -0.56444 q -0.366889,0 -0.620888,-0.23989 -0.239889,-0.254 -0.254,-0.62089 0.183444,0 0.366888,-0.0705 0.02822,0.14111 0.197556,0.14111 0.197555,0 0.197555,-0.19756 0,-0.11289 -0.09878,-0.18344 0.211667,-0.23989 0.211667,-0.56445 v -0.0141 -0.0141 -1.45344 l 1.608665,-1.05833 -1.608665,-1.07245 v -1.42522 -0.0141 -0.0141 q 0,-0.31044 -0.211667,-0.56444 0.09878,-0.0423 0.09878,-0.16934 0,-0.21166 -0.197555,-0.21166 -0.169333,0 -0.197556,0.15522 -0.169333,-0.0847 -0.366888,-0.0847 0.01411,-0.35278 0.254,-0.59266 0.253999,-0.254 0.620888,-0.26812 v -0.56444 h 0.282222 q 0.09878,-0.11289 0.197555,-0.21167 0.09878,-0.0988 0.197556,-0.16933 0.09878,-0.0847 0.211666,-0.15522 0.09878,0.0705 0.197556,0.15522 0.08467,0.0706 0.183444,0.16933 0.112889,0.0988 0.225778,0.21167 h 0.282222 v 0.56444 q 0.352773,0.0141 0.606773,0.26812 0.254,0.23988 0.26811,0.59266 -0.19755,0 -0.36688,0.0847 -0.0564,-0.15522 -0.19756,-0.15522 -0.0847,0 -0.155221,0.0564 -0.05644,0.0564 -0.05644,0.15522 0,0.127 0.112891,0.16934 -0.211668,0.23988 -0.211668,0.56444 v 0.0141 0.0141 0.47978 l 1.439338,0.94544 1.42522,-0.94544 v -0.47978 -0.0141 -0.0141 q 0,-0.32456 -0.19756,-0.56444 0.0988,-0.0423 0.0988,-0.16934 0,-0.0988 -0.0705,-0.15522 -0.0564,-0.0564 -0.14111,-0.0564 -0.14112,0 -0.19756,0.15522 -0.16933,-0.0847 -0.36689,-0.0847 0.0141,-0.35278 0.26811,-0.59266 0.254,-0.254 0.60678,-0.26812 v -0.56444 h 0.29633 q 0.0988,-0.11289 0.19756,-0.21167 0.11289,-0.0988 0.19755,-0.16933 0.0988,-0.0847 0.19756,-0.15522 0.0988,0.0705 0.21167,0.15522 0.0847,0.0706 0.18344,0.16933 0.11289,0.0988 0.21167,0.21167 h 0.28222 v 0.56444 q 0.36689,0.0141 0.60678,0.26812 0.254,0.23988 0.26811,0.59266 -0.19756,0 -0.36689,0.0847 -0.0282,-0.15522 -0.19756,-0.15522 -0.19755,0 -0.19755,0.21166 0,0.127 0.0988,0.16934 -0.21167,0.254 -0.21167,0.55033 v 0.0282 0.0141 1.42522 l -1.59456,1.07245 1.59456,1.05833 v 1.45344 0.0141 0.0282 q 0,0.31044 0.21167,0.55033 -0.0988,0.0705 -0.0988,0.18344 0,0.19756 0.19755,0.19756 0.16934,0 0.19756,-0.14111 0.18344,0.0705 0.36689,0.0705 -0.0141,0.36689 -0.26811,0.62089 -0.23989,0.23989 -0.60678,0.23989 v 0.56444 h -0.28222 q -0.0988,0.11289 -0.21167,0.21167 -0.0988,0.0988 -0.18344,0.16933 -0.11289,0.0847 -0.21167,0.16934 -0.0988,-0.0847 -0.19756,-0.16934 -0.0847,-0.0705 -0.19755,-0.16933 -0.0988,-0.0988 -0.19756,-0.21167 h -0.29633 v -0.56444 q -0.35278,0 -0.60678,-0.23989 -0.254,-0.254 -0.26811,-0.62089 0.18345,0 0.36689,-0.0705 0.0423,0.14111 0.19756,0.14111 0.0847,0 0.14111,-0.0564 0.0705,-0.0564 0.0705,-0.14111 0,-0.11289 -0.0988,-0.18344 0.19756,-0.23989 0.19756,-0.56445 v -0.0282 -0.49389 l -1.42522,-0.95955 -1.439338,0.95955 v 0.49389 0.0141 0.0282 q 0,0.33866 0.211668,0.55033 -0.112891,0.0705 -0.112891,0.18344 0,0.0847 0.05644,0.14111 0.07055,0.0564 0.155221,0.0564 0.15522,0 0.19756,-0.14111 z m 1.42522,-4.07811 0.254,0.16933 1.35466,-0.90311 v -1.97555 q 0,-0.15522 -0.0423,-0.23989 -0.0423,-0.0847 -0.0988,-0.14111 -0.0564,-0.0564 -0.14111,-0.0988 v 2.30011 z m 1.32644,2.34244 v 2.34244 q 0.0847,-0.0282 0.14111,-0.0988 0.0564,-0.0706 0.0988,-0.16934 0.0423,-0.0988 0.0423,-0.28222 v -1.94733 l -4.642549,-3.07622 v -1.82033 q 0,-0.15522 -0.04233,-0.23989 -0.04233,-0.0847 -0.09878,-0.14111 -0.05644,-0.0564 -0.141111,-0.0988 v 2.45533 z m -2.68111,-1.11477 -0.254,-0.16934 -1.707441,1.12889 v 2.49766 q 0.08467,-0.0282 0.141111,-0.0988 0.05644,-0.0706 0.09878,-0.16934 0.04233,-0.11288 0.04233,-0.29633 v -1.778 z"
         id="path4702" />
      <path
         d="m 110.95796,146.59501 q 0.26811,0.14111 0.508,0.32455 0.23989,0.16934 0.43744,0.40923 0.52211,0.56444 0.74789,1.32644 0.23989,0.74789 0.15522,1.59455 -0.127,1.28411 -1.08655,2.17311 -0.77611,0.70556 -1.778,0.86078 -0.0988,0.127 -0.21167,0.22578 -0.0988,0.11289 -0.19755,0.19755 -0.11289,0.0988 -0.22578,0.16934 -0.11289,-0.0847 -0.23989,-0.19756 -0.11289,-0.0847 -0.23989,-0.21166 -0.11289,-0.11289 -0.21166,-0.23989 -0.52212,-0.14111 -0.95956,-0.43745 -0.42333,-0.29633 -0.74789,-0.70555 -0.0988,-0.11289 -0.18344,-0.22578 -0.0706,-0.127 -0.14111,-0.23989 0,0 -0.0141,-0.0282 -0.0282,-0.0423 -0.0423,-0.0706 -0.0141,-0.0423 -0.0423,-0.0847 -0.0988,-0.18345 -0.15522,-0.29634 -0.0423,-0.127 -0.0423,-0.14111 0.0141,0 0.0564,-0.0423 0.0423,-0.0423 0.0423,-0.127 0,-0.14111 -0.11289,-0.18345 -0.0564,-0.0282 -0.0847,-0.0282 -0.16934,0 -0.19756,0.15522 -0.16933,-0.0847 -0.36689,-0.0847 0.0141,-0.32456 0.21167,-0.55033 0.21167,-0.22578 0.508,-0.28223 v -0.0141 q 0,-0.18344 0.127,-0.381 0.14111,-0.21166 0.31044,-0.36689 0.19756,-0.18344 0.45156,-0.36688 0.23989,0.18344 0.43744,0.36688 0.15522,0.15523 0.29633,0.36689 0.14112,0.19756 0.14112,0.381 0.36688,0 0.62088,0.254 0.254,0.23989 0.26811,0.59267 -0.19755,0 -0.36688,0.0847 -0.0565,-0.15522 -0.19756,-0.15522 -0.0847,0 -0.15522,0.0706 -0.0564,0.0564 -0.0564,0.14111 0,0.0141 0,0.0282 0.0141,0.0141 0.0141,0.0423 0,0 0.0141,0.0282 0.0282,0.0282 0.0282,0.0282 v 0.0141 h 0.0141 v 0.0141 l 0.0141,0.0141 q 0,0 0.0141,0.0141 0.0141,0.0282 0.0282,0.0423 0.0141,0.0141 0.0282,0.0423 0.0564,0.0423 0.0988,0.0847 0.0423,0.0423 0.11289,0.0847 v 0.0141 q 0.381,0.26812 0.84667,0.26812 0.29633,0 0.57855,-0.11289 0.28223,-0.11289 0.49389,-0.31045 0.22578,-0.19755 0.36689,-0.46566 0.14111,-0.26811 0.16933,-0.57856 0.0564,-0.60678 -0.0988,-0.98778 -0.15523,-0.381 -0.35278,-0.57855 -0.21167,-0.23989 -0.45156,-0.33867 -0.22577,-0.0988 -0.381,-0.0988 h -1.31233 l 1.07245,-2.63877 h -1.32645 v 1.21355 q -0.381,-0.0847 -0.70555,-0.31044 -0.32456,-0.23989 -0.56445,-0.56444 -0.22577,-0.32456 -0.36689,-0.71967 -0.14111,-0.39511 -0.14111,-0.81844 v -0.0423 -0.53622 h 0.33867 1.94733 q 0.0988,-0.11289 0.21167,-0.21167 0.11289,-0.0988 0.19755,-0.16933 0.0988,-0.0847 0.19756,-0.15522 0.0988,0.0705 0.19755,0.15522 0.0847,0.0706 0.18345,0.16933 0.11289,0.0988 0.22578,0.21167 h 2.22955 z m 0.74789,3.52777 q 0.0282,-0.26811 0.0141,-0.508 -0.0141,-0.23988 -0.0564,-0.47977 -0.0141,-0.0282 -0.0141,-0.0423 0,-0.0282 -0.0141,-0.0564 0,-0.0141 -0.0141,-0.0282 0,-0.0141 0,-0.0423 0,-0.0141 -0.0141,-0.0141 0,-0.0141 0,-0.0282 -0.0141,-0.0282 -0.0141,-0.0564 0,-0.0282 -0.0141,-0.0564 0,0 -0.0282,-0.0564 0,-0.0141 -0.0141,-0.0282 0,-0.0141 0,-0.0282 -0.0282,-0.0564 -0.0423,-0.0988 -0.0141,-0.0141 -0.0141,-0.0141 0,-0.0141 -0.0141,-0.0282 0,-0.0423 -0.0282,-0.0706 0,-0.0141 -0.0141,-0.0141 0,-0.0141 0,-0.0282 -0.0282,-0.0423 -0.0564,-0.0988 -0.0141,-0.0141 -0.0141,-0.0141 0,-0.0141 -0.0141,-0.0282 -0.0141,-0.0282 -0.0282,-0.0423 -0.0141,-0.0282 -0.0282,-0.0565 -0.0141,-0.0141 -0.0141,-0.0282 -0.0282,-0.0282 -0.0423,-0.0423 0,-0.0141 -0.0282,-0.0423 0,-0.0141 -0.0141,-0.0282 -0.0282,-0.0282 -0.0423,-0.0423 0,-0.0282 -0.0282,-0.0564 -0.0141,0 -0.0141,0 0,-0.0141 -0.0141,-0.0141 -0.0282,-0.0423 -0.0847,-0.0988 -0.0282,-0.0423 -0.0847,-0.0988 -0.0141,0 -0.0141,0 0,-0.0141 -0.0141,-0.0141 l -0.0705,-0.0706 q -0.0141,0 -0.0141,0 0,-0.0141 -0.0141,-0.0141 -0.0988,-0.0847 -0.19755,-0.15522 -0.46567,-0.31044 -0.97367,-0.381 l 0.35278,-0.84667 0.71967,-1.72155 h -3.47133 q 0,0.0282 0.0282,0.32456 0.0423,0.29633 0.29633,0.66322 v -0.70556 h 2.72344 l -1.07244,2.54 h 0.21167 q 0.36689,0 0.73377,0.18344 0.36689,0.16934 0.64911,0.47978 0.0141,0 0.0141,0.0141 0,0 0.0141,0 0.11289,0.127 0.19755,0.254 0.0847,0.127 0.15522,0.28222 0.0141,0 0.0141,0.0141 0.0141,0.0282 0.0141,0.0564 0.0141,0.0141 0.0282,0.0423 0,0.0141 0,0.0282 0.0141,0 0.0141,0.0141 l 0.0423,0.0847 q 0,0.0282 0.0141,0.0423 0,0.0282 0,0.0423 0.0141,0 0.0141,0.0141 0.0141,0.0282 0.0141,0.0565 0,0.0141 0.0141,0.0423 0,0.0141 0,0.0282 0.0141,0 0.0141,0.0141 0,0.0282 0,0.0423 0.0141,0 0.0141,0.0282 0.11289,0.47977 0.0564,0.95955 -0.0423,0.42334 -0.254,0.80433 -0.19755,0.381 -0.52211,0.66323 -0.31044,0.28222 -0.71966,0.45155 -0.40922,0.15522 -0.84667,0.15522 -0.45155,0 -0.84666,-0.15522 -0.39512,-0.16933 -0.69145,-0.45155 -0.28222,-0.28223 -0.45155,-0.64911 -0.16934,-0.381 -0.16934,-0.80434 -0.0847,0.0706 -0.14111,0.16934 -0.0423,0.0847 -0.0705,0.22577 -0.0282,0.127 0.0282,0.29634 0.23989,0.71966 0.87489,1.18533 0.635,0.45155 1.46755,0.45155 0.49389,0 0.94545,-0.16933 0.46566,-0.18344 0.83255,-0.508 0.36689,-0.32455 0.57856,-0.74789 0.22577,-0.42333 0.26811,-0.889 z"
         id="path4704" />
    </g>
  </g>
</svg>
